<svg id="Layer_1" data-name="Layer 1" xmlns="http://www.w3.org/2000/svg" viewBox="0 0 746 428.67"><defs><style>.cls-1{fill:#006068;}.cls-2{fill:#003b49;}.cls-3{fill:#c3c6c8;}</style></defs><title>kcvc_logo_color</title><path class="cls-1" d="M57.87,376.33H0V177.09H57.87Zm126-199.24L171.81,201.8,121.17,272l54.56,74.76,15.67,29.54h-63.9L60,274.75l50.94-76.56,10.85-21.1Z"/><path class="cls-1" d="M355.67,224.71C341.81,219,328.85,216,313.17,216c-34.06,0-63.6,19.89-63.6,61.79,0,43.71,28.33,59.08,60.89,59.08,16,0,30.14-3.32,45.21-9.34V370.9a177.37,177.37,0,0,1-57,9.35c-59.08,0-108.21-34.06-108.21-101.88,0-62.7,48.23-104.9,108.21-104.9a166.31,166.31,0,0,1,57,9.65Z"/><path class="cls-1" d="M431.93,177.09l42.8,142.27c2.11,7.53,2.71,10.85,2.71,12.06h2.41c0-1.21.6-4.52,2.71-12.06l41.6-142.27h60L514.82,376.33H439.16L369.53,177.09Z"/><path class="cls-1" d="M746,224.71C732.14,219,719.18,216,703.51,216c-34.06,0-63.6,19.89-63.6,61.79,0,43.71,28.34,59.08,60.89,59.08,16,0,30.14-3.32,45.21-9.34V370.9a177.36,177.36,0,0,1-57,9.35c-59.08,0-108.21-34.06-108.21-101.88,0-62.7,48.23-104.9,108.21-104.9a166.29,166.29,0,0,1,57,9.65Z"/><polygon class="cls-2" points="249.03 92.23 293.61 55.69 238.16 55.69 221.59 0 205.03 55.69 149.58 55.69 194.16 92.23 176.46 151.72 221.59 114.72 266.73 151.72 249.03 92.23"/><polygon class="cls-2" points="407.48 92.23 452.06 55.69 396.61 55.69 380.04 0 363.47 55.69 308.02 55.69 352.6 92.23 334.91 151.72 380.04 114.72 425.17 151.72 407.48 92.23"/><polygon class="cls-2" points="565.92 92.23 610.5 55.69 555.05 55.69 538.49 0 521.92 55.69 466.47 55.69 511.05 92.23 493.35 151.72 538.49 114.72 583.62 151.72 565.92 92.23"/><polygon class="cls-3" points="459.26 62.2 458.14 63.12 418.5 95.62 425.58 119.4 492.95 119.4 500.02 95.62 460.38 63.12 459.26 62.2"/><polygon class="cls-3" points="301.93 63.12 300.82 62.2 299.7 63.12 260.06 95.61 267.13 119.4 334.5 119.4 341.58 95.61 301.93 63.12"/><polygon class="cls-3" points="584.02 119.4 576.95 95.61 616.59 63.12 625.05 56.18 746 119.4 584.02 119.4"/><polygon class="cls-3" points="176.06 119.4 183.13 95.61 143.49 63.12 135.02 56.18 0 119.4 176.06 119.4"/><path class="cls-1" d="M9.8,402.78v25.39H2.42V402.78Zm16.06,0-1.54,3.15-6.45,9,7,9.53,2,3.76H18.67l-8.6-12.94,6.49-9.76,1.38-2.69Z"/><path class="cls-1" d="M36.72,402.78v25.39H29.35V402.78Z"/><path class="cls-1" d="M51.43,402.78l8.37,16.06a5.9,5.9,0,0,1,.58,1.61h.38c0-.54,0-1.08,0-1.61V402.78h6.61v25.39H57.42L49,412.46a5.24,5.24,0,0,1-.54-1.61h-.35c0,.54,0,1.11,0,1.65v15.67H41.56V402.78Z"/><path class="cls-1" d="M92.26,408.85a13.34,13.34,0,0,0-5.38-1.11c-4.34,0-8.1,2.5-8.1,7.91,0,6.57,4.84,8.26,9.87,7.53v-6.8l6-.5v10.75a23,23,0,0,1-9.6,2c-7.53,0-13.83-4.34-13.83-13,0-8,6.15-13.37,13.79-13.37a21.36,21.36,0,0,1,7.22,1.19Z"/><path class="cls-1" d="M126.87,408.85a13.52,13.52,0,0,0-5.42-1.11c-4.34,0-8.1,2.54-8.1,7.87,0,5.57,3.61,7.53,7.76,7.53a15,15,0,0,0,5.76-1.19v5.53a22.61,22.61,0,0,1-7.26,1.19c-7.53,0-13.79-4.34-13.79-13,0-8,6.15-13.37,13.79-13.37a21.17,21.17,0,0,1,7.26,1.23Z"/><path class="cls-1" d="M143.19,402.32c8.07,0,13.41,5,13.41,13.14,0,7.72-5.45,13.21-13.41,13.21s-13.44-5.07-13.44-13.17C129.75,407.81,135.24,402.32,143.19,402.32Zm-5.88,13.14c0,5,2.3,7.76,5.88,7.76s5.84-2.84,5.84-7.76-2.27-7.72-5.84-7.72S137.31,410.61,137.31,415.45Z"/><path class="cls-1" d="M167.7,402.78v15.1c0,4,2,5.34,4.65,5.34s4.61-1.31,4.61-5.34v-15.1h7.11v15.4c0,7.3-5,10.49-11.75,10.49-7.41,0-12-3.19-12-10.49v-15.4Z"/><path class="cls-1" d="M198.58,402.78,207,418.83a5.9,5.9,0,0,1,.58,1.61h.38c0-.54,0-1.08,0-1.61V402.78h6.61v25.39h-9.91l-8.37-15.71a5.22,5.22,0,0,1-.54-1.61h-.35c0,.54,0,1.11,0,1.65v15.67h-6.64V402.78Z"/><path class="cls-1" d="M239.25,402.78V408h-7.18v20.2H224.7V408h-7.18v-5.19Z"/><path class="cls-1" d="M247.89,402.78l4.65,10.45a8.67,8.67,0,0,1,.5,1.61h.38a7.15,7.15,0,0,1,.42-1.61l4.76-10.45h7.87L257.15,419v9.14h-7.91v-9.1l-9.3-16.29Z"/><path class="cls-1" d="M283,402.78l5.45,18.13a8.15,8.15,0,0,1,.35,1.54h.31a8.15,8.15,0,0,1,.35-1.54l5.3-18.13h7.64l-8.83,25.39h-9.64L275,402.78Z"/><path class="cls-1" d="M321.95,402.78V408h-9.64l.27,2.11v2.73h9.37v5.07h-9.37V423h10.18v5.19H305.2V402.78Z"/><path class="cls-1" d="M346.65,402.78V408h-7.18v20.2h-7.37V408h-7.18v-5.19Z"/><path class="cls-1" d="M366.43,402.78V408h-9.64l.27,2.11v2.73h9.37v5.07h-9.37V423h10.18v5.19H349.68V402.78Z"/><path class="cls-1" d="M382.25,402.78c6.3,0,10.41,2.88,10.41,8.14,0,3.57-2.61,6.07-6.15,7v.35l1.77,1.73,4.19,5.88,1.27,2.27h-7.87l-5.65-9.49h-1.65v9.49h-7.37V402.78Zm-3.69,11.75h2.53c2.27,0,4.07-1.11,4.07-3.65,0-2.15-1.73-3-4.07-3h-2.53Z"/><path class="cls-1" d="M413.29,402.78l8.8,25.39h-8l-1.61-5.34h-8.6l-1.57,5.34h-7.68l8.83-25.39Zm-5.22,5.07a6.12,6.12,0,0,1-.31,1.38L405.1,418h6.22l-2.65-8.8a9.57,9.57,0,0,1-.31-1.38Z"/><path class="cls-1" d="M434.79,402.78l8.37,16.06a5.88,5.88,0,0,1,.58,1.61h.38c0-.54,0-1.08,0-1.61V402.78h6.61v25.39h-9.91l-8.37-15.71a5.24,5.24,0,0,1-.54-1.61h-.35c0,.54,0,1.11,0,1.65v15.67h-6.64V402.78Z"/><path class="cls-1" d="M472.47,409.23a15.25,15.25,0,0,0-6.91-1.69c-2,0-3.69.5-3.69,1.81,0,3.88,12,3.19,12,11.22,0,4.38-3.53,8.1-10.26,8.1a32.45,32.45,0,0,1-8.83-1.34v-5.65a20.83,20.83,0,0,0,7.72,1.73c2.27,0,4.11-.54,4.11-2.07,0-3.69-11.91-2.84-11.91-11.45,0-5.45,5.34-7.57,9.95-7.57a24.08,24.08,0,0,1,7.84,1.46Z"/><path class="cls-1" d="M505.74,408.85a13.52,13.52,0,0,0-5.42-1.11c-4.34,0-8.11,2.54-8.11,7.87,0,5.57,3.61,7.53,7.76,7.53a15,15,0,0,0,5.76-1.19v5.53a22.61,22.61,0,0,1-7.26,1.19c-7.53,0-13.79-4.34-13.79-13,0-8,6.15-13.37,13.79-13.37a21.17,21.17,0,0,1,7.26,1.23Z"/><path class="cls-1" d="M522.06,402.32c8.07,0,13.4,5,13.4,13.14,0,7.72-5.45,13.21-13.4,13.21s-13.44-5.07-13.44-13.17C508.62,407.81,514.11,402.32,522.06,402.32Zm-5.88,13.14c0,5,2.31,7.76,5.88,7.76s5.84-2.84,5.84-7.76-2.27-7.72-5.84-7.72S516.18,410.61,516.18,415.45Z"/><path class="cls-1" d="M549.25,402.78l8.37,16.06a5.88,5.88,0,0,1,.58,1.61h.38c0-.54,0-1.08,0-1.61V402.78h6.61v25.39h-9.91l-8.37-15.71a5.24,5.24,0,0,1-.54-1.61H546c0,.54,0,1.11,0,1.65v15.67h-6.64V402.78Z"/><path class="cls-1" d="M586.93,409.23a15.25,15.25,0,0,0-6.91-1.69c-2,0-3.69.5-3.69,1.81,0,3.88,12,3.19,12,11.22,0,4.38-3.53,8.1-10.26,8.1a32.45,32.45,0,0,1-8.83-1.34v-5.65a20.83,20.83,0,0,0,7.72,1.73c2.27,0,4.11-.54,4.11-2.07,0-3.69-11.91-2.84-11.91-11.45,0-5.45,5.34-7.57,9.95-7.57a24.08,24.08,0,0,1,7.84,1.46Z"/><path class="cls-1" d="M604.49,402.32c8.07,0,13.4,5,13.4,13.14,0,7.72-5.45,13.21-13.4,13.21S591,423.6,591,415.49C591,407.81,596.54,402.32,604.49,402.32Zm-5.88,13.14c0,5,2.31,7.76,5.88,7.76s5.84-2.84,5.84-7.76-2.27-7.72-5.84-7.72S598.61,410.61,598.61,415.45Z"/><path class="cls-1" d="M632.87,402.78c6.3,0,10.41,2.88,10.41,8.14,0,3.57-2.61,6.07-6.15,7v.35L638.9,420l4.19,5.88,1.27,2.27h-7.87l-5.65-9.49h-1.65v9.49h-7.37V402.78Zm-3.69,11.75h2.53c2.27,0,4.07-1.11,4.07-3.65,0-2.15-1.73-3-4.07-3h-2.53Z"/><path class="cls-1" d="M667.21,402.78V408H660v20.2h-7.37V408h-7.18v-5.19Z"/><path class="cls-1" d="M677.62,402.78v25.39h-7.37V402.78Z"/><path class="cls-1" d="M689.64,402.78v15.1c0,4,2,5.34,4.65,5.34s4.61-1.31,4.61-5.34v-15.1H706v15.4c0,7.3-5,10.49-11.75,10.49-7.41,0-12-3.19-12-10.49v-15.4Z"/><path class="cls-1" d="M722.4,402.78l4.88,18a7,7,0,0,1,.23,1.46h.35a8.48,8.48,0,0,1,.27-1.46l4.84-18h9.64l2.69,25.39h-7.64l-1.23-17.32h-.31c0,.23-.08.85-.23,1.54l-4.49,15.79h-8l-4.46-15.79c-.15-.69-.23-1.31-.27-1.54h-.31l-1.19,17.32h-7.34l2.69-25.39Z"/></svg>